<?xml version="1.0" encoding="UTF-8"?><svg id="Ebene_1" xmlns="http://www.w3.org/2000/svg" viewBox="0 0 35 35"><defs><style>.cls-1{fill:#0a1440;}</style></defs><path class="cls-1" d="M17.5,10.56c-2.4,0-4.35,1.95-4.35,4.35s1.95,4.35,4.35,4.35,4.35-1.95,4.35-4.35-1.95-4.35-4.35-4.35Z"/><path class="cls-1" d="M17.5,2.5C9.23,2.5,2.5,9.23,2.5,17.5c0,5.71,3.21,10.68,7.92,13.22,2.11,1.14,4.52,1.78,7.08,1.78s4.97-.65,7.08-1.78c4.71-2.53,7.92-7.51,7.92-13.22,0-8.27-6.73-15-15-15Zm7.57,24.64c-.4-3.82-3.63-6.81-7.57-6.81s-7.16,2.98-7.57,6.81c-2.86-2.25-4.71-5.73-4.71-9.64,0-6.77,5.5-12.27,12.27-12.27s12.27,5.51,12.27,12.27c0,3.91-1.85,7.4-4.71,9.64Z"/></svg>