<?xml version="1.0" encoding="UTF-8"?><svg id="Ebene_1" xmlns="http://www.w3.org/2000/svg" viewBox="0 0 35 35"><defs><style>.cls-1{fill:#0a1440;}</style></defs><path class="cls-1" d="M26.13,10.77c-.22-.07-.46-.09-.69-.09-5.06,0-10.11,0-15.17,0-.31,0-.62-.01-.93,0-.61,.03-1.06,.31-1.28,.89-.35,.91,.32,1.84,1.33,1.84,2.7,0,5.41,0,8.11,0,1.68,0,3.36,0,5.05,0,1.05,0,2.11,0,3.16,0,.66,0,1.23-.5,1.32-1.13,.1-.68-.26-1.31-.9-1.51Z"/><path class="cls-1" d="M22.83,16.15c-3.54,0-7.09,0-10.63,0-.09,0-.17,0-.26,0-.58,.04-1.07,.46-1.2,1.02-.21,.89,.42,1.68,1.37,1.68,1.8,0,3.6,0,5.39,0,1.03,0,2.06,0,3.1,0,.81,0,1.62,.01,2.43,0,.84-.02,1.42-.79,1.26-1.61-.13-.69-.67-1.1-1.46-1.1Z"/><path class="cls-1" d="M32.5,17.91c0-.91,0-1.82,0-2.73,0-1.93,0-3.86,0-5.8,0-.48-.05-.96-.14-1.43-.69-3.25-3.43-5.46-6.78-5.46-1.47,0-2.93,0-4.4,0-.91,0-1.82,0-2.73,0-3,0-6,0-8.99,0-.35,0-.7,.02-1.05,.07-3.4,.51-5.84,3.28-5.87,6.72-.03,3.66-.03,7.33,0,10.99,.02,2.15,.9,3.91,2.57,5.27,.84,.69,1.8,1.12,2.89,1.36v.38c0,1.27,0,2.53,0,3.8,0,.76,.49,1.31,1.22,1.39,.39,.05,.72-.11,1.04-.32,2.48-1.66,4.95-3.31,7.44-4.95,.16-.1,.37-.17,.56-.17,2.42-.01,4.83,0,7.25-.01,.48,0,.96-.02,1.43-.11,3.31-.64,5.57-3.39,5.59-6.77,0-.75,0-1.49,0-2.24Zm-2.74,2.46c-.02,2.2-1.87,3.95-4.15,3.96-2.62,.01-5.24,0-7.85,0-.47,0-.86,.12-1.25,.38-1.82,1.23-3.64,2.44-5.47,3.65-.1,.06-.2,.13-.36,.23,0-.97,.01-1.87,0-2.77,0-.28-.07-.58-.19-.82-.24-.46-.67-.65-1.19-.67-1.54-.06-2.72-.75-3.52-2.08-.35-.59-.53-1.23-.53-1.91,0-3.71-.02-7.41,0-11.12,.01-2.14,1.82-3.97,3.96-3.98,3.08-.01,6.15,0,9.23,0,.91,0,1.82,0,2.73,0,1.55,0,3.09,0,4.64,0,2.12,0,3.94,1.82,3.95,3.95,.01,2,0,4,0,6,0,.91,0,1.82,0,2.72,0,.82,0,1.64,0,2.46Z"/></svg>