<?xml version="1.0" encoding="UTF-8"?><svg id="Ebene_1" xmlns="http://www.w3.org/2000/svg" viewBox="0 0 35 35"><defs><style>.cls-1{fill:#0a1440;}</style></defs><path class="cls-1" d="M23.35,15.56c-.44-.43-1.15-.43-1.58,0l-3.09,3.08,.09-14.48c0-.64-.51-1.16-1.15-1.16h0c-.64,0-1.15,.51-1.16,1.15l-.09,14.52-3.12-3.11c-.44-.44-1.15-.43-1.59,0-.21,.21-.33,.49-.33,.79s.12,.58,.33,.79l4.97,4.95c.18,.12,.48,.27,.88,.27,.22,0,.55-.05,.88-.27l4.97-4.95c.44-.44,.44-1.14,0-1.58Z"/><path class="cls-1" d="M23.86,32H11.14c-4.76,0-8.64-3.86-8.64-8.61,0-.75,.61-1.36,1.36-1.36s1.36,.61,1.36,1.36c0,3.25,2.65,5.89,5.91,5.89h12.73c3.26,0,5.91-2.64,5.91-5.89,0-.75,.61-1.36,1.36-1.36s1.36,.61,1.36,1.36c0,4.75-3.87,8.61-8.64,8.61Z"/></svg>