<?xml version="1.0" encoding="UTF-8"?><svg id="Ebene_1" xmlns="http://www.w3.org/2000/svg" viewBox="0 0 35 35"><defs><style>.cls-1{fill:#0a1440;}</style></defs><path class="cls-1" d="M25.43,8.39H4.04c-.85,0-1.54-.87-1.54-1.95s.69-1.95,1.54-1.95H25.43c.85,0,1.54,.87,1.54,1.95s-.69,1.95-1.54,1.95Z"/><path class="cls-1" d="M19.3,18.78H4.04c-.85,0-1.54-.87-1.54-1.95s.69-1.95,1.54-1.95h15.26c.85,0,1.54,.87,1.54,1.95s-.69,1.95-1.54,1.95Z"/><path class="cls-1" d="M15.21,29.16H4.04c-.85,0-1.54-.87-1.54-1.95s.69-1.95,1.54-1.95H15.21c.85,0,1.54,.87,1.54,1.95s-.69,1.95-1.54,1.95Z"/><path class="cls-1" d="M32.15,22.95c-.46-.48-1.22-.48-1.68,0l-3.28,3.43,.1-10.76c0-.71-.54-1.29-1.22-1.29h0c-.67,0-1.22,.57-1.23,1.27l-.1,10.8-3.3-3.45c-.46-.48-1.22-.48-1.68,0-.22,.23-.35,.55-.35,.88s.12,.64,.35,.88l5.26,5.49c.19,.13,.51,.3,.93,.29,.23,0,.58-.05,.93-.3l5.27-5.5c.46-.48,.46-1.27,0-1.76Z"/></svg>