<?xml version="1.0" encoding="UTF-8"?><svg id="Ebene_1" xmlns="http://www.w3.org/2000/svg" viewBox="0 0 35 35"><defs><style>.cls-1{fill:#0a1440;}</style></defs><path class="cls-1" d="M31.44,18.64H3.56c-.59,0-1.06-.5-1.06-1.12s.48-1.12,1.06-1.12H31.44c.59,0,1.06,.5,1.06,1.12s-.48,1.12-1.06,1.12Z"/><path class="cls-1" d="M31.44,9.24H3.56c-.59,0-1.06-.5-1.06-1.12s.48-1.12,1.06-1.12H31.44c.59,0,1.06,.5,1.06,1.12s-.48,1.12-1.06,1.12Z"/><path class="cls-1" d="M3.56,25.76H31.44c.59,0,1.06,.5,1.06,1.12s-.48,1.12-1.06,1.12H3.56c-.59,0-1.06-.5-1.06-1.12s.48-1.12,1.06-1.12Z"/></svg>